<?xml version="1.0" encoding="UTF-8"?>
<svg xmlns="http://www.w3.org/2000/svg" width="1024" height="1024" viewBox="0 0 1024 1024">
  <title>Agree on a Time app icon</title>
  <desc>GitHub-style contribution grid: scheduling activity building to a bright coral consensus cell.</desc>
  <rect width="1024" height="1024" fill="#010409"/>
  <g aria-hidden="true">
    <rect x="96" y="306" width="52" height="52" rx="11" ry="11" fill="#161b22"/>
    <rect x="156" y="306" width="52" height="52" rx="11" ry="11" fill="#161b22"/>
    <rect x="216" y="306" width="52" height="52" rx="11" ry="11" fill="#161b22"/>
    <rect x="276" y="306" width="52" height="52" rx="11" ry="11" fill="#161b22"/>
    <rect x="336" y="306" width="52" height="52" rx="11" ry="11" fill="#b5473c"/>
    <rect x="396" y="306" width="52" height="52" rx="11" ry="11" fill="#161b22"/>
    <rect x="456" y="306" width="52" height="52" rx="11" ry="11" fill="#b5473c"/>
    <rect x="516" y="306" width="52" height="52" rx="11" ry="11" fill="#161b22"/>
    <rect x="576" y="306" width="52" height="52" rx="11" ry="11" fill="#161b22"/>
    <rect x="636" y="306" width="52" height="52" rx="11" ry="11" fill="#6b2e26"/>
    <rect x="696" y="306" width="52" height="52" rx="11" ry="11" fill="#161b22"/>
    <rect x="756" y="306" width="52" height="52" rx="11" ry="11" fill="#6b2e26"/>
    <rect x="816" y="306" width="52" height="52" rx="11" ry="11" fill="#161b22"/>
    <rect x="876" y="306" width="52" height="52" rx="11" ry="11" fill="#161b22"/>
    <rect x="96" y="366" width="52" height="52" rx="11" ry="11" fill="#161b22"/>
    <rect x="156" y="366" width="52" height="52" rx="11" ry="11" fill="#b5473c"/>
    <rect x="216" y="366" width="52" height="52" rx="11" ry="11" fill="#161b22"/>
    <rect x="276" y="366" width="52" height="52" rx="11" ry="11" fill="#6b2e26"/>
    <rect x="336" y="366" width="52" height="52" rx="11" ry="11" fill="#161b22"/>
    <rect x="396" y="366" width="52" height="52" rx="11" ry="11" fill="#161b22"/>
    <rect x="456" y="366" width="52" height="52" rx="11" ry="11" fill="#161b22"/>
    <rect x="516" y="366" width="52" height="52" rx="11" ry="11" fill="#161b22"/>
    <rect x="576" y="366" width="52" height="52" rx="11" ry="11" fill="#e86656"/>
    <rect x="636" y="366" width="52" height="52" rx="11" ry="11" fill="#6b2e26"/>
    <rect x="696" y="366" width="52" height="52" rx="11" ry="11" fill="#6b2e26"/>
    <rect x="756" y="366" width="52" height="52" rx="11" ry="11" fill="#6b2e26"/>
    <rect x="816" y="366" width="52" height="52" rx="11" ry="11" fill="#161b22"/>
    <rect x="876" y="366" width="52" height="52" rx="11" ry="11" fill="#6b2e26"/>
    <rect x="96" y="426" width="52" height="52" rx="11" ry="11" fill="#6b2e26"/>
    <rect x="156" y="426" width="52" height="52" rx="11" ry="11" fill="#161b22"/>
    <rect x="216" y="426" width="52" height="52" rx="11" ry="11" fill="#6b2e26"/>
    <rect x="276" y="426" width="52" height="52" rx="11" ry="11" fill="#6b2e26"/>
    <rect x="336" y="426" width="52" height="52" rx="11" ry="11" fill="#6b2e26"/>
    <rect x="396" y="426" width="52" height="52" rx="11" ry="11" fill="#6b2e26"/>
    <rect x="456" y="426" width="52" height="52" rx="11" ry="11" fill="#6b2e26"/>
    <rect x="516" y="426" width="52" height="52" rx="11" ry="11" fill="#161b22"/>
    <rect x="576" y="426" width="52" height="52" rx="11" ry="11" fill="#b5473c"/>
    <rect x="636" y="426" width="52" height="52" rx="11" ry="11" fill="#FF6B5C"/>
    <rect x="696" y="426" width="52" height="52" rx="11" ry="11" fill="#6b2e26"/>
    <rect x="756" y="426" width="52" height="52" rx="11" ry="11" fill="#e86656"/>
    <rect x="816" y="426" width="52" height="52" rx="11" ry="11" fill="#161b22"/>
    <rect x="876" y="426" width="52" height="52" rx="11" ry="11" fill="#161b22"/>
    <rect x="96" y="486" width="52" height="52" rx="11" ry="11" fill="#6b2e26"/>
    <rect x="156" y="486" width="52" height="52" rx="11" ry="11" fill="#161b22"/>
    <rect x="216" y="486" width="52" height="52" rx="11" ry="11" fill="#6b2e26"/>
    <rect x="276" y="486" width="52" height="52" rx="11" ry="11" fill="#161b22"/>
    <rect x="336" y="486" width="52" height="52" rx="11" ry="11" fill="#b5473c"/>
    <rect x="396" y="486" width="52" height="52" rx="11" ry="11" fill="#6b2e26"/>
    <rect x="456" y="486" width="52" height="52" rx="11" ry="11" fill="#e86656"/>
    <rect x="516" y="486" width="52" height="52" rx="11" ry="11" fill="#b5473c"/>
    <rect x="576" y="486" width="52" height="52" rx="11" ry="11" fill="#FF6B5C"/>
    <rect x="636" y="486" width="52" height="52" rx="11" ry="11" fill="#FF6B5C"/>
    <rect x="696" y="486" width="52" height="52" rx="11" ry="11" fill="#FF6B5C"/>
    <rect x="756" y="486" width="52" height="52" rx="11" ry="11" fill="#6b2e26"/>
    <rect x="816" y="486" width="52" height="52" rx="11" ry="11" fill="#b5473c"/>
    <rect x="876" y="486" width="52" height="52" rx="11" ry="11" fill="#161b22"/>
    <rect x="96" y="546" width="52" height="52" rx="11" ry="11" fill="#161b22"/>
    <rect x="156" y="546" width="52" height="52" rx="11" ry="11" fill="#b5473c"/>
    <rect x="216" y="546" width="52" height="52" rx="11" ry="11" fill="#161b22"/>
    <rect x="276" y="546" width="52" height="52" rx="11" ry="11" fill="#161b22"/>
    <rect x="336" y="546" width="52" height="52" rx="11" ry="11" fill="#6b2e26"/>
    <rect x="396" y="546" width="52" height="52" rx="11" ry="11" fill="#e86656"/>
    <rect x="456" y="546" width="52" height="52" rx="11" ry="11" fill="#161b22"/>
    <rect x="516" y="546" width="52" height="52" rx="11" ry="11" fill="#b5473c"/>
    <rect x="576" y="546" width="52" height="52" rx="11" ry="11" fill="#b5473c"/>
    <rect x="636" y="546" width="52" height="52" rx="11" ry="11" fill="#FF6B5C"/>
    <rect x="696" y="546" width="52" height="52" rx="11" ry="11" fill="#e86656"/>
    <rect x="756" y="546" width="52" height="52" rx="11" ry="11" fill="#6b2e26"/>
    <rect x="816" y="546" width="52" height="52" rx="11" ry="11" fill="#b5473c"/>
    <rect x="876" y="546" width="52" height="52" rx="11" ry="11" fill="#6b2e26"/>
    <rect x="96" y="606" width="52" height="52" rx="11" ry="11" fill="#6b2e26"/>
    <rect x="156" y="606" width="52" height="52" rx="11" ry="11" fill="#b5473c"/>
    <rect x="216" y="606" width="52" height="52" rx="11" ry="11" fill="#161b22"/>
    <rect x="276" y="606" width="52" height="52" rx="11" ry="11" fill="#161b22"/>
    <rect x="336" y="606" width="52" height="52" rx="11" ry="11" fill="#161b22"/>
    <rect x="396" y="606" width="52" height="52" rx="11" ry="11" fill="#161b22"/>
    <rect x="456" y="606" width="52" height="52" rx="11" ry="11" fill="#161b22"/>
    <rect x="516" y="606" width="52" height="52" rx="11" ry="11" fill="#6b2e26"/>
    <rect x="576" y="606" width="52" height="52" rx="11" ry="11" fill="#b5473c"/>
    <rect x="636" y="606" width="52" height="52" rx="11" ry="11" fill="#e86656"/>
    <rect x="696" y="606" width="52" height="52" rx="11" ry="11" fill="#b5473c"/>
    <rect x="756" y="606" width="52" height="52" rx="11" ry="11" fill="#161b22"/>
    <rect x="816" y="606" width="52" height="52" rx="11" ry="11" fill="#b5473c"/>
    <rect x="876" y="606" width="52" height="52" rx="11" ry="11" fill="#6b2e26"/>
    <rect x="96" y="666" width="52" height="52" rx="11" ry="11" fill="#e86656"/>
    <rect x="156" y="666" width="52" height="52" rx="11" ry="11" fill="#b5473c"/>
    <rect x="216" y="666" width="52" height="52" rx="11" ry="11" fill="#6b2e26"/>
    <rect x="276" y="666" width="52" height="52" rx="11" ry="11" fill="#161b22"/>
    <rect x="336" y="666" width="52" height="52" rx="11" ry="11" fill="#b5473c"/>
    <rect x="396" y="666" width="52" height="52" rx="11" ry="11" fill="#161b22"/>
    <rect x="456" y="666" width="52" height="52" rx="11" ry="11" fill="#161b22"/>
    <rect x="516" y="666" width="52" height="52" rx="11" ry="11" fill="#b5473c"/>
    <rect x="576" y="666" width="52" height="52" rx="11" ry="11" fill="#6b2e26"/>
    <rect x="636" y="666" width="52" height="52" rx="11" ry="11" fill="#b5473c"/>
    <rect x="696" y="666" width="52" height="52" rx="11" ry="11" fill="#6b2e26"/>
    <rect x="756" y="666" width="52" height="52" rx="11" ry="11" fill="#6b2e26"/>
    <rect x="816" y="666" width="52" height="52" rx="11" ry="11" fill="#b5473c"/>
    <rect x="876" y="666" width="52" height="52" rx="11" ry="11" fill="#161b22"/>
  </g>
</svg>
